<svg id="Layer_1" enable-background="new 0 0 512 512" height="512" viewBox="0 0 512 512" width="512" xmlns="http://www.w3.org/2000/svg"><g><g><g><path d="m462.877.314c-3.973-1.183-8.146 1.083-9.326 5.053l-17.178 57.798c-1.18 3.971 1.083 8.146 5.053 9.326.713.211 1.432.313 2.14.313 3.233 0 6.218-2.108 7.186-5.365l17.178-57.799c1.18-3.971-1.083-8.146-5.053-9.326z"/></g><g><path d="m299.471 212.936c-1.886 1.854-4.972 1.847-6.88-.016-2.963-2.894-7.712-2.838-10.606.126-2.894 2.963-2.837 7.712.126 10.606 3.848 3.758 8.895 5.636 13.938 5.636 5.051 0 10.098-1.884 13.934-5.652 2.955-2.903 2.997-7.651.095-10.606-2.903-2.953-7.65-2.997-10.607-.094z"/></g><g><path d="m219.366 212.936c-1.886 1.854-4.972 1.847-6.88-.016-2.963-2.894-7.712-2.838-10.606.126-2.894 2.963-2.837 7.712.126 10.606 3.848 3.758 8.895 5.636 13.938 5.636 5.051 0 10.098-1.884 13.934-5.652 2.955-2.903 2.997-7.651.095-10.606-2.903-2.953-7.651-2.997-10.607-.094z"/></g><g><path d="m435.498 92.441c-3.969-1.182-8.145 1.08-9.328 5.049l-9.836 33.053c-1.914 6.434-3.609 11.662-5.105 16.275-4.477 13.799-7.184 22.145-7.891 38.521-.339 4.214-.468 8.326-.592 12.304-.539 17.22-.963 30.822-16.895 43.662-.141.114-.278.232-.411.356l-47.146 44.001c-1.574 1.474-3.394 1.673-4.644 1.581-2.163-.16-4.211-1.267-5.62-3.04-3.42-4.302.392-10.318 2.179-12.69l26.276-34.721c4.66-.571 9.048-2.515 12.655-5.701 4.711-4.162 7.516-9.894 7.897-16.12l2.211-34.327c.266-4.133-2.869-7.7-7.002-7.966-4.126-.267-7.7 2.869-7.966 7.002l-2.212 34.35c-.138 2.246-1.153 4.312-2.858 5.819-1.705 1.505-3.878 2.255-6.118 2.121-4.635-.285-8.184-4.323-7.912-9.005l1.39-24.067c1.275-22.126 7.001-35.936 19.151-46.18.958-.81 1.892-1.525 2.879-2.282 4.678-3.584 9.515-7.291 13.389-18.037l1.502-4.139c.051-.14.097-.281.14-.423l32.143-108.198c1.18-3.971-1.083-8.145-5.054-9.325-3.973-1.18-8.145 1.084-9.325 5.054l-32.08 107.984-1.432 3.945c-.674 1.87-1.329 3.333-2.008 4.55-6.251-11.567-15.431-21.726-27.075-29.866-.932-13.175-5.96-25.482-14.374-35.012-2.632-2.98-5.561-5.615-8.728-7.9-2.518-18.059-13.583-32.441-31.481-40.754-27.782-12.903-66.218-8.097-93.468 11.686-28.736 20.863-42.097 54.693-37.78 95.42-1.49 3.324-2.825 6.715-4.008 10.161-1.867-1.821-3.307-4.02-4.85-8.299l-1.426-3.929-32.08-107.987c-1.18-3.971-5.354-6.234-9.325-5.054s-6.233 5.354-5.054 9.325l32.144 108.198c.042.143.089.284.14.423l1.497 4.123c3.88 10.762 8.717 14.468 13.395 18.053.988.757 1.921 1.472 2.88 2.283 12.148 10.261 17.875 24.072 19.15 46.18l1.389 24.07c.272 4.678-3.276 8.716-7.912 9.001-4.661.29-8.704-3.287-9.005-7.957l-2.183-34.327c-.263-4.133-3.819-7.271-7.961-7.009-4.134.263-7.271 3.827-7.009 7.961l2.183 34.334c.738 11.436 9.597 20.457 20.577 21.817l26.253 34.726c1.803 2.381 5.627 8.383 2.218 12.673-1.424 1.783-3.483 2.896-5.648 3.055-1.249.092-3.076-.11-4.662-1.586l-47.111-43.994c-.134-.125-.272-.246-.416-.361-15.941-12.832-16.361-26.424-16.893-43.631-.123-3.986-.25-8.106-.59-12.331-.706-16.34-3.41-24.662-7.883-38.423-1.507-4.637-3.215-9.893-5.142-16.371l-37.188-125.178c-1.18-3.971-5.353-6.231-9.325-5.054-3.971 1.18-6.233 5.355-5.054 9.325l37.19 125.18c1.981 6.662 3.721 12.013 5.255 16.734 4.229 13.013 6.559 20.181 7.168 34.567.004.097.01.195.018.292.318 3.898.44 7.875.56 11.722.571 18.469 1.16 37.562 22.26 54.675l46.921 43.817c3.936 3.667 8.984 5.637 14.36 5.637.541 0 1.085-.02 1.632-.06.232-.017.463-.045.694-.07 7.904 9.582 17.95 18.965 28.717 26.659v17.898l-1.713.438c-38.749 9.902-110.875 28.333-114.154 82.979l-3.342 65.452c-.225 3.838-.046 8.707 3.361 12.319 3.427 3.633 8.236 4.123 12.488 4.123h301.03c4.252 0 9.061-.49 12.488-4.123 3.407-3.612 3.585-8.481 3.364-12.263l-3.349-65.58c-3.308-54.595-75.46-73.02-114.223-82.919l-1.64-.419v-17.923c10.761-7.691 20.804-17.065 28.712-26.64.227.024.453.052.681.068.549.04 1.095.061 1.638.061 5.383 0 10.429-1.974 14.349-5.642l46.945-43.813c21.082-17.119 21.68-36.221 22.257-54.696.12-3.839.244-7.809.561-11.699.008-.097.014-.194.018-.292.611-14.427 2.806-21.194 7.179-34.674 1.523-4.694 3.249-10.016 5.215-16.625l9.836-33.052c1.182-3.971-1.078-8.147-5.048-9.328zm-97.905 17.632c7.376 6.52 13.034 14.056 16.914 22.527-12.759 11.444-18.363 25.41-20.932 38.645-7.703-7.738-16.53-14.229-26.146-19.296 3.58-1.739 6.976-3.905 10.125-6.508 10.292-8.508 17.258-20.982 20.039-35.368zm-138.032-77.936c23.049-16.734 55.263-20.937 78.337-10.22 7.107 3.301 15.34 9.031 19.886 18.742-4.333-1.139-8.867-1.793-13.546-1.905-34.536-.803-66.186 8.683-91.49 27.446-9.588 7.11-18.024 15.433-25.11 24.665 2.295-24.78 13.23-45.156 31.923-58.728zm-38.232 104.204c.701-2.526 1.481-5.011 2.343-7.451.508-.225 1.005-.488 1.469-.835 25.571-19.145 75.408-26.868 111.096-17.218 4 1.082 8.117-1.284 9.198-5.282 1.082-3.999-1.283-8.117-5.282-9.198-32.434-8.773-74.093-4.852-104.375 8.472 22.019-32.582 61.694-52.18 108.105-51.079 8.072.193 14.964 2.352 20.645 5.844.132.086.263.172.4.25 12.432 7.86 18.92 22.184 19.028 36.248-.089 15.705-5.903 29.475-15.958 37.786-8.487 7.016-19.101 9.581-30.695 7.417-.205-.038-.408-.061-.612-.082-6.752-1.282-13.674-1.954-20.69-1.955-.006 0-.007 0-.013 0-29.5 0-57.396 11.712-77.567 31.97-2.296-11.813-7.017-24.211-17.092-34.887zm242.713 294.529 3.348 65.565c.012.199.021.383.027.552-.264.008-.563.013-.901.013h-35.727v-43.297c0-7.168-5.832-12.999-12.999-12.999h-85.235c-4.142 0-7.5 3.358-7.5 7.5s3.358 7.5 7.5 7.5h83.234v41.296h-199.577v-41.296h81.732c4.142 0 7.5-3.358 7.5-7.5s-3.358-7.5-7.5-7.5h-83.761c-7.152 0-12.971 5.832-12.971 12.999v43.297h-35.727c-.338 0-.637-.005-.901-.013.007-.185.017-.387.029-.608l3.341-65.441c2.62-43.654 65.388-59.693 102.891-69.277l2.145-.548c9.444-2.381 10.854-9.255 10.854-13.14v-9.868c10.528 5.531 21.112 8.935 30.536 8.935.544 0 1.083-.011 1.619-.034.536.022 1.073.034 1.617.034 9.419-.001 20.006-3.41 30.539-8.949v9.882c0 3.879 1.404 10.744 10.8 13.134l2.129.544c37.52 9.579 100.316 25.615 102.958 69.219zm-85.804-168.396c-7.995 10.615-8.742 22.517-1.95 31.062.517.65 1.066 1.267 1.644 1.853-18.544 21.222-45.367 37.491-61.528 36.618-.268-.015-.537-.015-.806 0-16.182.862-43.012-15.398-61.535-36.618.579-.585 1.131-1.203 1.65-1.853 6.806-8.562 6.043-20.471-1.986-31.073l-22.28-29.471c6.655-4.497 10.85-12.305 10.35-20.892l-1.185-20.534c17.68-23.744 45.002-37.308 75.377-37.308h.012c6.115.001 12.103.559 17.917 1.631.208.058.419.112.636.152.355.066.709.114 1.064.174 22.368 4.545 41.999 16.869 55.773 35.377l-1.184 20.505c-.5 8.588 3.694 16.395 10.346 20.893z"/></g><g><path d="m266.039 274.814c-5.264 3.212-14.829 3.215-20.068.006-3.532-2.165-8.149-1.053-10.313 2.478-2.164 3.532-1.054 8.149 2.478 10.313 5.001 3.064 11.425 4.595 17.854 4.595 6.423 0 12.851-1.53 17.863-4.589 3.536-2.158 4.652-6.773 2.495-10.309-2.157-3.535-6.774-4.653-10.309-2.494z"/></g></g></g></svg>